 http://i1228.photobucket.com/albums/ee447/austintxut1/FantasticFour-RiseoftheSilverSurfer2007DvDRipXviD-IARGavi_thumbs_20110813_165114.jpg

 
http://i1228.photobucket.com/albums/ee447/austintxut1/fant4.png

Fantastic Four - Rise of the Silver Surfer (2007) DvDRip XviD-IARG.avi

Format                           : AVI-Xvid
Format/Info                      : Audio Video Interleave
File size                        : 991 MiB
Duration                         : 1h 31mn
Overall bit rate                 : 1 510 Kbps


Video
ID                               : 0
Format                           : MPEG-4 Visual
Format profile                   : Advanced Simple@L5
Format settings, BVOP            : 2
Format settings, QPel            : No
Format settings, GMC             : No warppoints
Format settings, Matrix          : Default (MPEG)
Codec ID                         : XVID
Codec ID/Hint                    : XviD
Duration                         : 1h 31mn
Bit rate                         : 1 056 Kbps
Width                            : 720 pixels
Height                           : 480 pixels
Display aspect ratio             : 4:3
Frame rate                       : 29.970 fps
Standard                         : NTSC
Color space                      : YUV
Chroma subsampling               : 4:2:0
Bit depth                        : 8 bits
Scan type                        : Progressive
Compression mode                 : Lossy
Bits/(Pixel*Frame)               : 0.102
Stream size                      : 693 MiB (70%)
Writing library                  : XviD 1.2.1 (UTC 2008-12-04)

Audio
ID                               : 1
Format                           : AC-3
Format/Info                      : Audio Coding 3
Mode extension                   : CM (complete main)
Codec ID                         : 2000
Duration                         : 1h 31mn
Bit rate mode                    : Constant
Bit rate                         : 448 Kbps
Channel(s)                       : 6 channels
Channel positions                : Front: L C R, Side: L R, LFE
Sampling rate                    : 48.0 KHz
Bit depth                        : 16 bits
Compression mode                 : Lossy
Delay relative to video          : 33ms
Stream size                      : 294 MiB (30%)
Alignment                        : Split accross interleaves
Interleave, duration             : 500 ms (14.98 video frames)
Interleave, preload duration     : 500 ms
 
http://img84.imageshack.us/img84/6611/newrough.png


